<svg width="900" height="600" version="1.1" xmlns="http://www.w3.org/2000/svg"><rect width="900" height="600" fill="#de2910" fill-rule="evenodd"/><g transform="matrix(.73892 0 0 .73892 164.51 8.7274)"><path d="m361 473.36v-48h49v-35l45 1v34h50v-33l44-1 1 34h45l1 49-47 1 1 70 49-1v56l-42-1 50 56-57 1-51-59-43 1-47 56h-57l50-55-39-1v-52h47v-73z" fill="#ffde00" fill-rule="evenodd"/><rect x="450" y="471.36" width="55" height="72" fill="#de2910"/><rect x="667" y="426.36" width="242" height="172" fill="#ffde00"/><rect x="711" y="475.36" width="152" height="73" fill="#de2910"/><rect x="765" y="390.36" width="42" height="272" fill="#ffde00"/></g><path d="m160.85 50.231 11.652 34.793 36.691 0.33039-29.49 21.834 11.024 34.997-29.878-21.299-29.878 21.299 11.024-34.997-29.49-21.834 36.691-0.33038z" fill="none" stroke="#ffde00" stroke-width="8"/><path d="m235.08 130.45s64.472 27.674 65.992 81.807-17.941 72.076-17.941 72.076-1.4668 2.7375-4.8164 6.7402l-81.564-81.564 23.504-21.961-16.498-16.498h-26.307l-45.16 45.16 27.674 27.676 18.08-16.895 80.648 80.648c-13.822 8.3802-34.37 15.715-63.756 15.316-11.832 0-48.573-8.0146-66.602-43.49l-2.4316-7.9062s-22.201-0.30469-26.154-0.30469c-3.9535 0-10.645 22.201-10.645 22.201 2.4991-1.1737 14.92 0.0168 21.662 1.334 0.86098 1.4335 2.1568 3.4844 3.8965 5.9531l-56.883 56.881s-8.7635 32.4 23.701 23.701l0.17188 0.17188 56.189-56.189c13.52 10.728 32.024 20.344 55.879 21.977 41.732 2.8554 71.474-11.547 84.828-19.787l25.262 25.262c9.9246-1.7265 15.439-7.2058 18.094-18.096l-24.072-24.072c9.8677-11.493 22.913-31.045 25.137-56.062 3.6494-41.056-13.381-73.596-13.381-73.596s-21.288-40.751-74.508-50.482z" fill="#ffde00" stroke="#ffde00" stroke-linejoin="round" stroke-width="2"/></svg>